<svg width="27" height="22" viewBox="0 0 27 22" fill="none" xmlns="http://www.w3.org/2000/svg">
<path d="M26.3042 3.03007C24.6309 3.35654 22.9529 3.66002 21.2853 4.01294C18.5295 4.59461 15.7771 5.19927 13.027 5.80968C11.1252 6.23156 9.30063 6.0028 7.50033 5.29353C6.43169 4.8728 5.32727 4.54288 4.2344 4.18652C3.2777 3.87384 2.41101 4.26354 2.1225 5.11765C1.83515 5.96831 2.2933 6.82128 3.25 7.13165C5.65733 7.90875 8.05888 8.70423 10.4858 9.41005C11.0813 9.58363 11.7945 9.55489 12.4096 9.42155C16.2664 8.58008 20.1105 7.68114 23.9592 6.80633C25.2806 6.5063 25.4468 6.627 25.6984 8.05014C24.0066 8.43984 22.3136 8.83298 20.6183 9.21923C17.8347 9.85378 15.0558 10.5171 12.2596 11.0907C11.5949 11.2275 10.8286 11.1838 10.1731 10.9999C8.21929 10.4504 6.30128 9.77446 4.35788 9.18589C3.95281 9.06289 3.47965 9.01001 3.07112 9.09048C2.41217 9.21923 1.97248 9.87447 1.96325 10.5309C1.95401 11.1827 2.351 11.7735 3.04112 12.0057C4.56676 12.5173 6.10279 12.9943 7.63535 13.4852C8.292 13.6956 8.96365 13.868 9.60414 14.1197C10.6635 14.537 11.7056 14.5485 12.8124 14.2864C16.5226 13.4047 20.2525 12.6012 23.9604 11.7103C25.1917 11.4149 25.5276 11.8161 25.5934 12.9978C23.718 13.4277 21.8346 13.8611 19.9513 14.291C17.3362 14.8888 14.7269 15.5199 12.0992 16.0533C11.4552 16.1843 10.712 16.1062 10.0715 15.9257C8.02541 15.3475 6.00931 14.6658 3.97704 14.0427C3.26269 13.8232 2.55758 14.1174 2.19059 14.7324C1.82822 15.3394 1.89747 16.0855 2.41794 16.5763C2.63259 16.7798 2.91764 16.9442 3.19922 17.0361C5.56731 17.8063 7.93309 18.5834 10.322 19.2881C10.884 19.4536 11.5533 19.4789 12.1269 19.3548C16.0795 18.5007 20.0193 17.5891 23.9627 16.6959C25.1941 16.4177 25.4029 16.5683 25.621 17.9477C24.632 18.1822 23.6373 18.4259 22.639 18.6535C19.163 19.4456 15.6917 20.2572 12.2053 20.9975C11.5568 21.1354 10.8055 21.1147 10.1708 20.9296C7.7069 20.2112 5.27765 19.3755 2.82301 18.6248C1.48201 18.2144 0.337205 17.4672 0.337205 15.8119C0.337205 13.9232 1.0354 13.6346 1.34353 13.0346C1.01924 12.4012 0.123708 12.1828 0.225264 10.4021C0.337205 8.42489 1.03425 8.67664 1.41739 7.92139C1.42893 7.93518 1.34122 7.83747 1.25582 7.73746C-0.40138 5.81887 0.540316 3.04847 3.02958 2.53117C3.32732 2.4691 3.64353 2.49094 3.94242 2.43346C6.97062 1.84949 10.0034 1.27932 13.0282 0.663159C14.6565 0.33209 16.2883 0.0837882 17.9444 0.296454C20.399 0.61143 22.8456 0.987331 25.2991 1.31725C25.7895 1.38392 26.13 1.50808 26.1219 2.09319C26.1184 2.3277 26.2396 2.56451 26.3042 2.80016C26.3042 2.87718 26.3042 2.95305 26.3042 3.03007Z" fill="#00B050"/>
</svg>
