<svg width="22" height="20" viewBox="0 0 22 20" fill="none" xmlns="http://www.w3.org/2000/svg">
<path d="M12.5 0H7.5V5H12.5V0Z" fill="#8F90A6"/>
<path d="M5 15H0V20H5V15Z" fill="#8F90A6"/>
<path d="M5 7.5H0V12.5H5V7.5Z" fill="#8F90A6"/>
<path d="M5 0H0V5H5V0Z" fill="#8F90A6"/>
<path d="M12.5 10.525V7.5H7.5V12.5H10.525L12.5 10.525Z" fill="#8F90A6"/>
<path d="M21.1 9.1125L19.6375 7.65C19.4375 7.45 19.1125 7.45 18.9125 7.65L17.8125 8.75L20 10.9375L21.1 9.8375C21.3 9.6375 21.3 9.3125 21.1 9.1125Z" fill="#8F90A6"/>
<path d="M8.75 17.8125V20H10.9375L19.275 11.6625L17.0875 9.47504L8.75 17.8125Z" fill="#8F90A6"/>
<path d="M20 0H15V5H20V0Z" fill="#8F90A6"/>
</svg>
